<svg xmlns="http://www.w3.org/2000/svg" version="1.1" xmlns:xlink="http://www.w3.org/1999/xlink" xmlns:svgjs="http://svgjs.dev/svgjs" width="1000" height="800" preserveAspectRatio="none" viewBox="0 0 1000 800"><g mask="url(&quot;#SvgjsMask1834&quot;)" fill="none"><rect width="1000" height="800" x="0" y="0" fill="url(&quot;#SvgjsLinearGradient1835&quot;)"></rect><path d="M-82.08 592.5L-82.08 592.5" stroke="rgba(211, 221, 251, 1)" stroke-width="1.5"></path><path d="M-82.08 592.5L-47.95 681.38" stroke="rgba(211, 221, 251, 1)" stroke-width="1.5"></path><path d="M-82.08 592.5L38.48 685.69" stroke="rgba(211, 221, 251, 1)" stroke-width="1.5"></path><path d="M-82.08 592.5L76.39 548.07" stroke="rgba(211, 221, 251, 1)" stroke-width="1.5"></path><path d="M-82.08 592.5L-69.01 795.39" stroke="rgba(211, 221, 251, 1)" stroke-width="1.5"></path><path d="M-82.08 592.5L53.22 790.66" stroke="rgba(211, 221, 251, 1)" stroke-width="1.5"></path><path d="M-47.95 681.38L-47.95 681.38" stroke="rgba(211, 221, 251, 1)" stroke-width="1.5"></path><path d="M-47.95 681.38L38.48 685.69" stroke="rgba(211, 221, 251, 1)" stroke-width="1.5"></path><path d="M-69.01 795.39L-69.01 795.39" stroke="rgba(211, 221, 251, 1)" stroke-width="1.5"></path><path d="M-69.01 795.39L-47.95 681.38" stroke="rgba(211, 221, 251, 1)" stroke-width="1.5"></path><path d="M-69.01 795.39L53.22 790.66" stroke="rgba(211, 221, 251, 1)" stroke-width="1.5"></path><path d="M-69.01 795.39L-49.25 939.91" stroke="rgba(211, 221, 251, 1)" stroke-width="1.5"></path><path d="M-69.01 795.39L38.48 685.69" stroke="rgba(211, 221, 251, 1)" stroke-width="1.5"></path><path d="M-49.25 939.91L-49.25 939.91" stroke="rgba(211, 221, 251, 1)" stroke-width="1.5"></path><path d="M-49.25 939.91L91.35 916.17" stroke="rgba(211, 221, 251, 1)" stroke-width="1.5"></path><path d="M-49.25 939.91L53.22 790.66" stroke="rgba(211, 221, 251, 1)" stroke-width="1.5"></path><path d="M76.39 548.07L76.39 548.07" stroke="rgba(211, 221, 251, 1)" stroke-width="1.5"></path><path d="M76.39 548.07L197.33 587.72" stroke="rgba(211, 221, 251, 1)" stroke-width="1.5"></path><path d="M76.39 548.07L38.48 685.69" stroke="rgba(211, 221, 251, 1)" stroke-width="1.5"></path><path d="M76.39 548.07L170.34 668.55" stroke="rgba(211, 221, 251, 1)" stroke-width="1.5"></path><path d="M38.48 685.69L38.48 685.69" stroke="rgba(211, 221, 251, 1)" stroke-width="1.5"></path><path d="M38.48 685.69L53.22 790.66" stroke="rgba(211, 221, 251, 1)" stroke-width="1.5"></path><path d="M38.48 685.69L170.34 668.55" stroke="rgba(211, 221, 251, 1)" stroke-width="1.5"></path><path d="M53.22 790.66L53.22 790.66" stroke="rgba(211, 221, 251, 1)" stroke-width="1.5"></path><path d="M53.22 790.66L91.35 916.17" stroke="rgba(211, 221, 251, 1)" stroke-width="1.5"></path><path d="M53.22 790.66L180.81 836.78" stroke="rgba(211, 221, 251, 1)" stroke-width="1.5"></path><path d="M91.35 916.17L91.35 916.17" stroke="rgba(211, 221, 251, 1)" stroke-width="1.5"></path><path d="M91.35 916.17L172.67 933.17" stroke="rgba(211, 221, 251, 1)" stroke-width="1.5"></path><path d="M91.35 916.17L180.81 836.78" stroke="rgba(211, 221, 251, 1)" stroke-width="1.5"></path><path d="M197.33 587.72L197.33 587.72" stroke="rgba(211, 221, 251, 1)" stroke-width="1.5"></path><path d="M197.33 587.72L170.34 668.55" stroke="rgba(211, 221, 251, 1)" stroke-width="1.5"></path><path d="M170.34 668.55L170.34 668.55" stroke="rgba(211, 221, 251, 1)" stroke-width="1.5"></path><path d="M170.34 668.55L289.88 583.21" stroke="rgba(211, 221, 251, 1)" stroke-width="1.5"></path><path d="M180.81 836.78L180.81 836.78" stroke="rgba(211, 221, 251, 1)" stroke-width="1.5"></path><path d="M180.81 836.78L172.67 933.17" stroke="rgba(211, 221, 251, 1)" stroke-width="1.5"></path><path d="M180.81 836.78L303.73 839.04" stroke="rgba(211, 221, 251, 1)" stroke-width="1.5"></path><path d="M172.67 933.17L172.67 933.17" stroke="rgba(211, 221, 251, 1)" stroke-width="1.5"></path><path d="M172.67 933.17L332.56 943.71" stroke="rgba(211, 221, 251, 1)" stroke-width="1.5"></path><path d="M172.67 933.17L303.73 839.04" stroke="rgba(211, 221, 251, 1)" stroke-width="1.5"></path><path d="M172.67 933.17L53.22 790.66" stroke="rgba(211, 221, 251, 1)" stroke-width="1.5"></path><path d="M322.08 463.88L322.08 463.88" stroke="rgba(211, 221, 251, 1)" stroke-width="1.5"></path><path d="M322.08 463.88L434.19 437.9" stroke="rgba(211, 221, 251, 1)" stroke-width="1.5"></path><path d="M322.08 463.88L289.88 583.21" stroke="rgba(211, 221, 251, 1)" stroke-width="1.5"></path><path d="M322.08 463.88L446.04 580.9" stroke="rgba(211, 221, 251, 1)" stroke-width="1.5"></path><path d="M322.08 463.88L197.33 587.72" stroke="rgba(211, 221, 251, 1)" stroke-width="1.5"></path><path d="M289.88 583.21L289.88 583.21" stroke="rgba(211, 221, 251, 1)" stroke-width="1.5"></path><path d="M289.88 583.21L197.33 587.72" stroke="rgba(211, 221, 251, 1)" stroke-width="1.5"></path><path d="M289.88 583.21L327.87 685.79" stroke="rgba(211, 221, 251, 1)" stroke-width="1.5"></path><path d="M289.88 583.21L446.04 580.9" stroke="rgba(211, 221, 251, 1)" stroke-width="1.5"></path><path d="M327.87 685.79L327.87 685.79" stroke="rgba(211, 221, 251, 1)" stroke-width="1.5"></path><path d="M327.87 685.79L463.64 702.42" stroke="rgba(211, 221, 251, 1)" stroke-width="1.5"></path><path d="M327.87 685.79L426.27 801.88" stroke="rgba(211, 221, 251, 1)" stroke-width="1.5"></path><path d="M327.87 685.79L303.73 839.04" stroke="rgba(211, 221, 251, 1)" stroke-width="1.5"></path><path d="M327.87 685.79L446.04 580.9" stroke="rgba(211, 221, 251, 1)" stroke-width="1.5"></path><path d="M303.73 839.04L303.73 839.04" stroke="rgba(211, 221, 251, 1)" stroke-width="1.5"></path><path d="M303.73 839.04L332.56 943.71" stroke="rgba(211, 221, 251, 1)" stroke-width="1.5"></path><path d="M303.73 839.04L426.27 801.88" stroke="rgba(211, 221, 251, 1)" stroke-width="1.5"></path><path d="M332.56 943.71L332.56 943.71" stroke="rgba(211, 221, 251, 1)" stroke-width="1.5"></path><path d="M332.56 943.71L467.65 937.94" stroke="rgba(211, 221, 251, 1)" stroke-width="1.5"></path><path d="M332.56 943.71L426.27 801.88" stroke="rgba(211, 221, 251, 1)" stroke-width="1.5"></path><path d="M332.56 943.71L180.81 836.78" stroke="rgba(211, 221, 251, 1)" stroke-width="1.5"></path><path d="M332.56 943.71L561.81 960.42" stroke="rgba(211, 221, 251, 1)" stroke-width="1.5"></path><path d="M434.19 437.9L434.19 437.9" stroke="rgba(211, 221, 251, 1)" stroke-width="1.5"></path><path d="M434.19 437.9L548.26 408.31" stroke="rgba(211, 221, 251, 1)" stroke-width="1.5"></path><path d="M434.19 437.9L446.04 580.9" stroke="rgba(211, 221, 251, 1)" stroke-width="1.5"></path><path d="M434.19 437.9L536.89 311.47" stroke="rgba(211, 221, 251, 1)" stroke-width="1.5"></path><path d="M446.04 580.9L446.04 580.9" stroke="rgba(211, 221, 251, 1)" stroke-width="1.5"></path><path d="M446.04 580.9L463.64 702.42" stroke="rgba(211, 221, 251, 1)" stroke-width="1.5"></path><path d="M446.04 580.9L588.29 559.19" stroke="rgba(211, 221, 251, 1)" stroke-width="1.5"></path><path d="M463.64 702.42L463.64 702.42" stroke="rgba(211, 221, 251, 1)" stroke-width="1.5"></path><path d="M463.64 702.42L564.89 697" stroke="rgba(211, 221, 251, 1)" stroke-width="1.5"></path><path d="M463.64 702.42L426.27 801.88" stroke="rgba(211, 221, 251, 1)" stroke-width="1.5"></path><path d="M426.27 801.88L426.27 801.88" stroke="rgba(211, 221, 251, 1)" stroke-width="1.5"></path><path d="M426.27 801.88L467.65 937.94" stroke="rgba(211, 221, 251, 1)" stroke-width="1.5"></path><path d="M426.27 801.88L592.92 804.74" stroke="rgba(211, 221, 251, 1)" stroke-width="1.5"></path><path d="M467.65 937.94L467.65 937.94" stroke="rgba(211, 221, 251, 1)" stroke-width="1.5"></path><path d="M467.65 937.94L561.81 960.42" stroke="rgba(211, 221, 251, 1)" stroke-width="1.5"></path><path d="M536.89 311.47L536.89 311.47" stroke="rgba(211, 221, 251, 1)" stroke-width="1.5"></path><path d="M536.89 311.47L548.26 408.31" stroke="rgba(211, 221, 251, 1)" stroke-width="1.5"></path><path d="M536.89 311.47L692.73 337.91" stroke="rgba(211, 221, 251, 1)" stroke-width="1.5"></path><path d="M536.89 311.47L662.95 461.19" stroke="rgba(211, 221, 251, 1)" stroke-width="1.5"></path><path d="M536.89 311.47L679.82 176.12" stroke="rgba(211, 221, 251, 1)" stroke-width="1.5"></path><path d="M548.26 408.31L548.26 408.31" stroke="rgba(211, 221, 251, 1)" stroke-width="1.5"></path><path d="M548.26 408.31L662.95 461.19" stroke="rgba(211, 221, 251, 1)" stroke-width="1.5"></path><path d="M548.26 408.31L588.29 559.19" stroke="rgba(211, 221, 251, 1)" stroke-width="1.5"></path><path d="M548.26 408.31L692.73 337.91" stroke="rgba(211, 221, 251, 1)" stroke-width="1.5"></path><path d="M588.29 559.19L588.29 559.19" stroke="rgba(211, 221, 251, 1)" stroke-width="1.5"></path><path d="M588.29 559.19L682.22 584.17" stroke="rgba(211, 221, 251, 1)" stroke-width="1.5"></path><path d="M588.29 559.19L662.95 461.19" stroke="rgba(211, 221, 251, 1)" stroke-width="1.5"></path><path d="M564.89 697L564.89 697" stroke="rgba(211, 221, 251, 1)" stroke-width="1.5"></path><path d="M564.89 697L592.92 804.74" stroke="rgba(211, 221, 251, 1)" stroke-width="1.5"></path><path d="M564.89 697L701.44 670.35" stroke="rgba(211, 221, 251, 1)" stroke-width="1.5"></path><path d="M564.89 697L588.29 559.19" stroke="rgba(211, 221, 251, 1)" stroke-width="1.5"></path><path d="M592.92 804.74L592.92 804.74" stroke="rgba(211, 221, 251, 1)" stroke-width="1.5"></path><path d="M592.92 804.74L682.51 823.51" stroke="rgba(211, 221, 251, 1)" stroke-width="1.5"></path><path d="M592.92 804.74L561.81 960.42" stroke="rgba(211, 221, 251, 1)" stroke-width="1.5"></path><path d="M592.92 804.74L463.64 702.42" stroke="rgba(211, 221, 251, 1)" stroke-width="1.5"></path><path d="M592.92 804.74L701.44 670.35" stroke="rgba(211, 221, 251, 1)" stroke-width="1.5"></path><path d="M561.81 960.42L561.81 960.42" stroke="rgba(211, 221, 251, 1)" stroke-width="1.5"></path><path d="M561.81 960.42L711.68 943.7" stroke="rgba(211, 221, 251, 1)" stroke-width="1.5"></path><path d="M561.81 960.42L682.51 823.51" stroke="rgba(211, 221, 251, 1)" stroke-width="1.5"></path><path d="M561.81 960.42L426.27 801.88" stroke="rgba(211, 221, 251, 1)" stroke-width="1.5"></path><path d="M660.23 -60.01L660.23 -60.01" stroke="rgba(211, 221, 251, 1)" stroke-width="1.5"></path><path d="M660.23 -60.01L707.02 57.1" stroke="rgba(211, 221, 251, 1)" stroke-width="1.5"></path><path d="M660.23 -60.01L831.17 -80.62" stroke="rgba(211, 221, 251, 1)" stroke-width="1.5"></path><path d="M660.23 -60.01L824.16 92.83" stroke="rgba(211, 221, 251, 1)" stroke-width="1.5"></path><path d="M707.02 57.1L707.02 57.1" stroke="rgba(211, 221, 251, 1)" stroke-width="1.5"></path><path d="M707.02 57.1L679.82 176.12" stroke="rgba(211, 221, 251, 1)" stroke-width="1.5"></path><path d="M707.02 57.1L824.16 92.83" stroke="rgba(211, 221, 251, 1)" stroke-width="1.5"></path><path d="M679.82 176.12L679.82 176.12" stroke="rgba(211, 221, 251, 1)" stroke-width="1.5"></path><path d="M679.82 176.12L793.31 175.71" stroke="rgba(211, 221, 251, 1)" stroke-width="1.5"></path><path d="M679.82 176.12L692.73 337.91" stroke="rgba(211, 221, 251, 1)" stroke-width="1.5"></path><path d="M679.82 176.12L824.16 92.83" stroke="rgba(211, 221, 251, 1)" stroke-width="1.5"></path><path d="M679.82 176.12L841.89 281.97" stroke="rgba(211, 221, 251, 1)" stroke-width="1.5"></path><path d="M692.73 337.91L692.73 337.91" stroke="rgba(211, 221, 251, 1)" stroke-width="1.5"></path><path d="M692.73 337.91L662.95 461.19" stroke="rgba(211, 221, 251, 1)" stroke-width="1.5"></path><path d="M692.73 337.91L841.89 281.97" stroke="rgba(211, 221, 251, 1)" stroke-width="1.5"></path><path d="M692.73 337.91L807.53 451.26" stroke="rgba(211, 221, 251, 1)" stroke-width="1.5"></path><path d="M662.95 461.19L662.95 461.19" stroke="rgba(211, 221, 251, 1)" stroke-width="1.5"></path><path d="M662.95 461.19L682.22 584.17" stroke="rgba(211, 221, 251, 1)" stroke-width="1.5"></path><path d="M662.95 461.19L807.53 451.26" stroke="rgba(211, 221, 251, 1)" stroke-width="1.5"></path><path d="M682.22 584.17L682.22 584.17" stroke="rgba(211, 221, 251, 1)" stroke-width="1.5"></path><path d="M682.22 584.17L701.44 670.35" stroke="rgba(211, 221, 251, 1)" stroke-width="1.5"></path><path d="M682.22 584.17L564.89 697" stroke="rgba(211, 221, 251, 1)" stroke-width="1.5"></path><path d="M682.22 584.17L807.53 451.26" stroke="rgba(211, 221, 251, 1)" stroke-width="1.5"></path><path d="M701.44 670.35L701.44 670.35" stroke="rgba(211, 221, 251, 1)" stroke-width="1.5"></path><path d="M701.44 670.35L832.81 711.28" stroke="rgba(211, 221, 251, 1)" stroke-width="1.5"></path><path d="M682.51 823.51L682.51 823.51" stroke="rgba(211, 221, 251, 1)" stroke-width="1.5"></path><path d="M682.51 823.51L711.68 943.7" stroke="rgba(211, 221, 251, 1)" stroke-width="1.5"></path><path d="M682.51 823.51L701.44 670.35" stroke="rgba(211, 221, 251, 1)" stroke-width="1.5"></path><path d="M711.68 943.7L711.68 943.7" stroke="rgba(211, 221, 251, 1)" stroke-width="1.5"></path><path d="M711.68 943.7L796.88 961.23" stroke="rgba(211, 221, 251, 1)" stroke-width="1.5"></path><path d="M711.68 943.7L840.39 824.81" stroke="rgba(211, 221, 251, 1)" stroke-width="1.5"></path><path d="M711.68 943.7L592.92 804.74" stroke="rgba(211, 221, 251, 1)" stroke-width="1.5"></path><path d="M711.68 943.7L926.47 955.39" stroke="rgba(211, 221, 251, 1)" stroke-width="1.5"></path><path d="M831.17 -80.62L831.17 -80.62" stroke="rgba(211, 221, 251, 1)" stroke-width="1.5"></path><path d="M831.17 -80.62L947.39 -32.78" stroke="rgba(211, 221, 251, 1)" stroke-width="1.5"></path><path d="M831.17 -80.62L824.16 92.83" stroke="rgba(211, 221, 251, 1)" stroke-width="1.5"></path><path d="M824.16 92.83L824.16 92.83" stroke="rgba(211, 221, 251, 1)" stroke-width="1.5"></path><path d="M824.16 92.83L908.71 81.86" stroke="rgba(211, 221, 251, 1)" stroke-width="1.5"></path><path d="M824.16 92.83L793.31 175.71" stroke="rgba(211, 221, 251, 1)" stroke-width="1.5"></path><path d="M824.16 92.83L934.87 187.62" stroke="rgba(211, 221, 251, 1)" stroke-width="1.5"></path><path d="M793.31 175.71L793.31 175.71" stroke="rgba(211, 221, 251, 1)" stroke-width="1.5"></path><path d="M841.89 281.97L841.89 281.97" stroke="rgba(211, 221, 251, 1)" stroke-width="1.5"></path><path d="M841.89 281.97L910.45 334.36" stroke="rgba(211, 221, 251, 1)" stroke-width="1.5"></path><path d="M841.89 281.97L793.31 175.71" stroke="rgba(211, 221, 251, 1)" stroke-width="1.5"></path><path d="M841.89 281.97L934.87 187.62" stroke="rgba(211, 221, 251, 1)" stroke-width="1.5"></path><path d="M807.53 451.26L807.53 451.26" stroke="rgba(211, 221, 251, 1)" stroke-width="1.5"></path><path d="M807.53 451.26L923.45 434.12" stroke="rgba(211, 221, 251, 1)" stroke-width="1.5"></path><path d="M807.53 451.26L910.45 334.36" stroke="rgba(211, 221, 251, 1)" stroke-width="1.5"></path><path d="M832.81 711.28L832.81 711.28" stroke="rgba(211, 221, 251, 1)" stroke-width="1.5"></path><path d="M832.81 711.28L840.39 824.81" stroke="rgba(211, 221, 251, 1)" stroke-width="1.5"></path><path d="M832.81 711.28L921.43 783.25" stroke="rgba(211, 221, 251, 1)" stroke-width="1.5"></path><path d="M840.39 824.81L840.39 824.81" stroke="rgba(211, 221, 251, 1)" stroke-width="1.5"></path><path d="M840.39 824.81L921.43 783.25" stroke="rgba(211, 221, 251, 1)" stroke-width="1.5"></path><path d="M840.39 824.81L796.88 961.23" stroke="rgba(211, 221, 251, 1)" stroke-width="1.5"></path><path d="M796.88 961.23L796.88 961.23" stroke="rgba(211, 221, 251, 1)" stroke-width="1.5"></path><path d="M796.88 961.23L926.47 955.39" stroke="rgba(211, 221, 251, 1)" stroke-width="1.5"></path><path d="M796.88 961.23L682.51 823.51" stroke="rgba(211, 221, 251, 1)" stroke-width="1.5"></path><path d="M947.39 -32.78L947.39 -32.78" stroke="rgba(211, 221, 251, 1)" stroke-width="1.5"></path><path d="M947.39 -32.78L908.71 81.86" stroke="rgba(211, 221, 251, 1)" stroke-width="1.5"></path><path d="M947.39 -32.78L1088.76 -35.19" stroke="rgba(211, 221, 251, 1)" stroke-width="1.5"></path><path d="M947.39 -32.78L1039.99 79.48" stroke="rgba(211, 221, 251, 1)" stroke-width="1.5"></path><path d="M947.39 -32.78L824.16 92.83" stroke="rgba(211, 221, 251, 1)" stroke-width="1.5"></path><path d="M908.71 81.86L908.71 81.86" stroke="rgba(211, 221, 251, 1)" stroke-width="1.5"></path><path d="M908.71 81.86L934.87 187.62" stroke="rgba(211, 221, 251, 1)" stroke-width="1.5"></path><path d="M934.87 187.62L934.87 187.62" stroke="rgba(211, 221, 251, 1)" stroke-width="1.5"></path><path d="M934.87 187.62L793.31 175.71" stroke="rgba(211, 221, 251, 1)" stroke-width="1.5"></path><path d="M934.87 187.62L910.45 334.36" stroke="rgba(211, 221, 251, 1)" stroke-width="1.5"></path><path d="M910.45 334.36L910.45 334.36" stroke="rgba(211, 221, 251, 1)" stroke-width="1.5"></path><path d="M923.45 434.12L923.45 434.12" stroke="rgba(211, 221, 251, 1)" stroke-width="1.5"></path><path d="M923.45 434.12L910.45 334.36" stroke="rgba(211, 221, 251, 1)" stroke-width="1.5"></path><path d="M923.45 434.12L1041.82 429.71" stroke="rgba(211, 221, 251, 1)" stroke-width="1.5"></path><path d="M966.15 693.63L966.15 693.63" stroke="rgba(211, 221, 251, 1)" stroke-width="1.5"></path><path d="M966.15 693.63L921.43 783.25" stroke="rgba(211, 221, 251, 1)" stroke-width="1.5"></path><path d="M966.15 693.63L1092.71 701.75" stroke="rgba(211, 221, 251, 1)" stroke-width="1.5"></path><path d="M966.15 693.63L832.81 711.28" stroke="rgba(211, 221, 251, 1)" stroke-width="1.5"></path><path d="M921.43 783.25L921.43 783.25" stroke="rgba(211, 221, 251, 1)" stroke-width="1.5"></path><path d="M921.43 783.25L1070.97 821.52" stroke="rgba(211, 221, 251, 1)" stroke-width="1.5"></path><path d="M926.47 955.39L926.47 955.39" stroke="rgba(211, 221, 251, 1)" stroke-width="1.5"></path><path d="M926.47 955.39L1036.49 919.5" stroke="rgba(211, 221, 251, 1)" stroke-width="1.5"></path><path d="M926.47 955.39L840.39 824.81" stroke="rgba(211, 221, 251, 1)" stroke-width="1.5"></path><path d="M926.47 955.39L921.43 783.25" stroke="rgba(211, 221, 251, 1)" stroke-width="1.5"></path><path d="M1088.76 -35.19L1088.76 -35.19" stroke="rgba(211, 221, 251, 1)" stroke-width="1.5"></path><path d="M1088.76 -35.19L1039.99 79.48" stroke="rgba(211, 221, 251, 1)" stroke-width="1.5"></path><path d="M1039.99 79.48L1039.99 79.48" stroke="rgba(211, 221, 251, 1)" stroke-width="1.5"></path><path d="M1039.99 79.48L1089.06 160.09" stroke="rgba(211, 221, 251, 1)" stroke-width="1.5"></path><path d="M1089.06 160.09L1089.06 160.09" stroke="rgba(211, 221, 251, 1)" stroke-width="1.5"></path><path d="M1089.06 160.09L934.87 187.62" stroke="rgba(211, 221, 251, 1)" stroke-width="1.5"></path><path d="M1089.06 160.09L1052.78 342.55" stroke="rgba(211, 221, 251, 1)" stroke-width="1.5"></path><path d="M1089.06 160.09L1088.76 -35.19" stroke="rgba(211, 221, 251, 1)" stroke-width="1.5"></path><path d="M1089.06 160.09L908.71 81.86" stroke="rgba(211, 221, 251, 1)" stroke-width="1.5"></path><path d="M1052.78 342.55L1052.78 342.55" stroke="rgba(211, 221, 251, 1)" stroke-width="1.5"></path><path d="M1052.78 342.55L1041.82 429.71" stroke="rgba(211, 221, 251, 1)" stroke-width="1.5"></path><path d="M1052.78 342.55L910.45 334.36" stroke="rgba(211, 221, 251, 1)" stroke-width="1.5"></path><path d="M1052.78 342.55L923.45 434.12" stroke="rgba(211, 221, 251, 1)" stroke-width="1.5"></path><path d="M1041.82 429.71L1041.82 429.71" stroke="rgba(211, 221, 251, 1)" stroke-width="1.5"></path><path d="M1041.82 429.71L910.45 334.36" stroke="rgba(211, 221, 251, 1)" stroke-width="1.5"></path><path d="M1070.02 593.72L1070.02 593.72" stroke="rgba(211, 221, 251, 1)" stroke-width="1.5"></path><path d="M1070.02 593.72L1092.71 701.75" stroke="rgba(211, 221, 251, 1)" stroke-width="1.5"></path><path d="M1070.02 593.72L966.15 693.63" stroke="rgba(211, 221, 251, 1)" stroke-width="1.5"></path><path d="M1092.71 701.75L1092.71 701.75" stroke="rgba(211, 221, 251, 1)" stroke-width="1.5"></path><path d="M1092.71 701.75L1070.97 821.52" stroke="rgba(211, 221, 251, 1)" stroke-width="1.5"></path><path d="M1092.71 701.75L921.43 783.25" stroke="rgba(211, 221, 251, 1)" stroke-width="1.5"></path><path d="M1070.97 821.52L1070.97 821.52" stroke="rgba(211, 221, 251, 1)" stroke-width="1.5"></path><path d="M1070.97 821.52L1036.49 919.5" stroke="rgba(211, 221, 251, 1)" stroke-width="1.5"></path><path d="M1070.97 821.52L966.15 693.63" stroke="rgba(211, 221, 251, 1)" stroke-width="1.5"></path><path d="M1036.49 919.5L1036.49 919.5" stroke="rgba(211, 221, 251, 1)" stroke-width="1.5"></path><path d="M1036.49 919.5L921.43 783.25" stroke="rgba(211, 221, 251, 1)" stroke-width="1.5"></path><path d="M1036.49 919.5L840.39 824.81" stroke="rgba(211, 221, 251, 1)" stroke-width="1.5"></path><path d="M1036.49 919.5L1092.71 701.75" stroke="rgba(211, 221, 251, 1)" stroke-width="1.5"></path><path d="M1036.49 919.5L966.15 693.63" stroke="rgba(211, 221, 251, 1)" stroke-width="1.5"></path><circle r="5" cx="-82.08" cy="592.5" fill="rgba(211, 221, 251, 1)"></circle><circle r="5" cx="-47.95" cy="681.38" fill="rgba(211, 221, 251, 1)"></circle><circle r="5" cx="-69.01" cy="795.39" fill="rgba(211, 221, 251, 1)"></circle><circle r="5" cx="-49.25" cy="939.91" fill="rgba(211, 221, 251, 1)"></circle><circle r="5" cx="76.39" cy="548.07" fill="rgba(211, 221, 251, 1)"></circle><circle r="5" cx="38.48" cy="685.69" fill="rgba(211, 221, 251, 1)"></circle><circle r="5" cx="53.22" cy="790.66" fill="rgba(211, 221, 251, 1)"></circle><circle r="5" cx="91.35" cy="916.17" fill="rgba(211, 221, 251, 1)"></circle><circle r="5" cx="197.33" cy="587.72" fill="rgba(211, 221, 251, 1)"></circle><circle r="5" cx="170.34" cy="668.55" fill="rgba(211, 221, 251, 1)"></circle><circle r="5" cx="180.81" cy="836.78" fill="rgba(211, 221, 251, 1)"></circle><circle r="5" cx="172.67" cy="933.17" fill="rgba(211, 221, 251, 1)"></circle><circle r="5" cx="322.08" cy="463.88" fill="rgba(211, 221, 251, 1)"></circle><circle r="5" cx="289.88" cy="583.21" fill="rgba(211, 221, 251, 1)"></circle><circle r="5" cx="327.87" cy="685.79" fill="rgba(211, 221, 251, 1)"></circle><circle r="5" cx="303.73" cy="839.04" fill="rgba(211, 221, 251, 1)"></circle><circle r="5" cx="332.56" cy="943.71" fill="rgba(211, 221, 251, 1)"></circle><circle r="5" cx="434.19" cy="437.9" fill="rgba(211, 221, 251, 1)"></circle><circle r="5" cx="446.04" cy="580.9" fill="rgba(211, 221, 251, 1)"></circle><circle r="5" cx="463.64" cy="702.42" fill="rgba(211, 221, 251, 1)"></circle><circle r="5" cx="426.27" cy="801.88" fill="rgba(211, 221, 251, 1)"></circle><circle r="5" cx="467.65" cy="937.94" fill="rgba(211, 221, 251, 1)"></circle><circle r="5" cx="536.89" cy="311.47" fill="rgba(211, 221, 251, 1)"></circle><circle r="5" cx="548.26" cy="408.31" fill="rgba(211, 221, 251, 1)"></circle><circle r="5" cx="588.29" cy="559.19" fill="rgba(211, 221, 251, 1)"></circle><circle r="5" cx="564.89" cy="697" fill="rgba(211, 221, 251, 1)"></circle><circle r="5" cx="592.92" cy="804.74" fill="rgba(211, 221, 251, 1)"></circle><circle r="5" cx="561.81" cy="960.42" fill="rgba(211, 221, 251, 1)"></circle><circle r="5" cx="660.23" cy="-60.01" fill="rgba(211, 221, 251, 1)"></circle><circle r="5" cx="707.02" cy="57.1" fill="rgba(211, 221, 251, 1)"></circle><circle r="5" cx="679.82" cy="176.12" fill="rgba(211, 221, 251, 1)"></circle><circle r="5" cx="692.73" cy="337.91" fill="rgba(211, 221, 251, 1)"></circle><circle r="5" cx="662.95" cy="461.19" fill="rgba(211, 221, 251, 1)"></circle><circle r="5" cx="682.22" cy="584.17" fill="rgba(211, 221, 251, 1)"></circle><circle r="5" cx="701.44" cy="670.35" fill="rgba(211, 221, 251, 1)"></circle><circle r="5" cx="682.51" cy="823.51" fill="rgba(211, 221, 251, 1)"></circle><circle r="5" cx="711.68" cy="943.7" fill="rgba(211, 221, 251, 1)"></circle><circle r="5" cx="831.17" cy="-80.62" fill="rgba(211, 221, 251, 1)"></circle><circle r="5" cx="824.16" cy="92.83" fill="rgba(211, 221, 251, 1)"></circle><circle r="5" cx="793.31" cy="175.71" fill="rgba(211, 221, 251, 1)"></circle><circle r="5" cx="841.89" cy="281.97" fill="rgba(211, 221, 251, 1)"></circle><circle r="5" cx="807.53" cy="451.26" fill="rgba(211, 221, 251, 1)"></circle><circle r="5" cx="832.81" cy="711.28" fill="rgba(211, 221, 251, 1)"></circle><circle r="5" cx="840.39" cy="824.81" fill="rgba(211, 221, 251, 1)"></circle><circle r="5" cx="796.88" cy="961.23" fill="rgba(211, 221, 251, 1)"></circle><circle r="5" cx="947.39" cy="-32.78" fill="rgba(211, 221, 251, 1)"></circle><circle r="5" cx="908.71" cy="81.86" fill="rgba(211, 221, 251, 1)"></circle><circle r="5" cx="934.87" cy="187.62" fill="rgba(211, 221, 251, 1)"></circle><circle r="5" cx="910.45" cy="334.36" fill="rgba(211, 221, 251, 1)"></circle><circle r="5" cx="923.45" cy="434.12" fill="rgba(211, 221, 251, 1)"></circle><circle r="5" cx="966.15" cy="693.63" fill="rgba(211, 221, 251, 1)"></circle><circle r="5" cx="921.43" cy="783.25" fill="rgba(211, 221, 251, 1)"></circle><circle r="5" cx="926.47" cy="955.39" fill="rgba(211, 221, 251, 1)"></circle><circle r="5" cx="1088.76" cy="-35.19" fill="rgba(211, 221, 251, 1)"></circle><circle r="5" cx="1039.99" cy="79.48" fill="rgba(211, 221, 251, 1)"></circle><circle r="5" cx="1089.06" cy="160.09" fill="rgba(211, 221, 251, 1)"></circle><circle r="5" cx="1052.78" cy="342.55" fill="rgba(211, 221, 251, 1)"></circle><circle r="5" cx="1041.82" cy="429.71" fill="rgba(211, 221, 251, 1)"></circle><circle r="5" cx="1070.02" cy="593.72" fill="rgba(211, 221, 251, 1)"></circle><circle r="5" cx="1092.71" cy="701.75" fill="rgba(211, 221, 251, 1)"></circle><circle r="5" cx="1070.97" cy="821.52" fill="rgba(211, 221, 251, 1)"></circle><circle r="5" cx="1036.49" cy="919.5" fill="rgba(211, 221, 251, 1)"></circle><path d="M196.7 827.38L196.7 827.38" stroke="hsl(238.39999999999998, 63.8%, 100%)" stroke-width="1.5"></path><path d="M196.7 827.38L318.87 821.44" stroke="hsl(238.39999999999998, 63.8%, 100%)" stroke-width="1.5"></path><path d="M565.35 459.28L565.35 459.28" stroke="hsl(238.39999999999998, 63.8%, 100%)" stroke-width="1.5"></path><path d="M565.35 459.28L676.81 444.94" stroke="hsl(238.39999999999998, 63.8%, 100%)" stroke-width="1.5"></path><path d="M565.35 459.28L426.12 552.99" stroke="hsl(238.39999999999998, 63.8%, 100%)" stroke-width="1.5"></path><path d="M565.35 459.28L693.64 573.81" stroke="hsl(238.39999999999998, 63.8%, 100%)" stroke-width="1.5"></path><path d="M565.35 459.28L462.41 660.62" stroke="hsl(238.39999999999998, 63.8%, 100%)" stroke-width="1.5"></path><path d="M565.35 459.28L799.37 424.98" stroke="hsl(238.39999999999998, 63.8%, 100%)" stroke-width="1.5"></path><path d="M571.74 797.63L571.74 797.63" stroke="hsl(238.39999999999998, 63.8%, 100%)" stroke-width="1.5"></path><path d="M571.74 797.63L550.82 707.65" stroke="hsl(238.39999999999998, 63.8%, 100%)" stroke-width="1.5"></path><path d="M571.74 797.63L666.05 817.71" stroke="hsl(238.39999999999998, 63.8%, 100%)" stroke-width="1.5"></path><path d="M571.74 797.63L449.86 788.44" stroke="hsl(238.39999999999998, 63.8%, 100%)" stroke-width="1.5"></path><path d="M571.74 797.63L536.92 959.31" stroke="hsl(238.39999999999998, 63.8%, 100%)" stroke-width="1.5"></path><path d="M571.74 797.63L462.41 660.62" stroke="hsl(238.39999999999998, 63.8%, 100%)" stroke-width="1.5"></path><path d="M571.74 797.63L413.45 966.61" stroke="hsl(238.39999999999998, 63.8%, 100%)" stroke-width="1.5"></path><path d="M798.28 293.83L798.28 293.83" stroke="hsl(238.39999999999998, 63.8%, 100%)" stroke-width="1.5"></path><path d="M798.28 293.83L811.25 187.98" stroke="hsl(238.39999999999998, 63.8%, 100%)" stroke-width="1.5"></path><path d="M798.28 293.83L799.37 424.98" stroke="hsl(238.39999999999998, 63.8%, 100%)" stroke-width="1.5"></path><path d="M783.04 668.44L783.04 668.44" stroke="hsl(238.39999999999998, 63.8%, 100%)" stroke-width="1.5"></path><path d="M783.04 668.44L812.1 556.99" stroke="hsl(238.39999999999998, 63.8%, 100%)" stroke-width="1.5"></path><path d="M783.04 668.44L693.64 573.81" stroke="hsl(238.39999999999998, 63.8%, 100%)" stroke-width="1.5"></path><path d="M809.41 796.55L809.41 796.55" stroke="hsl(238.39999999999998, 63.8%, 100%)" stroke-width="1.5"></path><path d="M809.41 796.55L783.04 668.44" stroke="hsl(238.39999999999998, 63.8%, 100%)" stroke-width="1.5"></path><path d="M809.41 796.55L666.05 817.71" stroke="hsl(238.39999999999998, 63.8%, 100%)" stroke-width="1.5"></path><path d="M809.41 796.55L948.09 662" stroke="hsl(238.39999999999998, 63.8%, 100%)" stroke-width="1.5"></path><path d="M809.41 796.55L571.74 797.63" stroke="hsl(238.39999999999998, 63.8%, 100%)" stroke-width="1.5"></path><path d="M809.41 796.55L812.1 556.99" stroke="hsl(238.39999999999998, 63.8%, 100%)" stroke-width="1.5"></path><path d="M809.41 796.55L1053.43 790.52" stroke="hsl(238.39999999999998, 63.8%, 100%)" stroke-width="1.5"></path><path d="M960.57 -81.94L960.57 -81.94" stroke="hsl(238.39999999999998, 63.8%, 100%)" stroke-width="1.5"></path><path d="M960.57 -81.94L1081.89 -83.95" stroke="hsl(238.39999999999998, 63.8%, 100%)" stroke-width="1.5"></path><path d="M960.57 -81.94L939.61 66.73" stroke="hsl(238.39999999999998, 63.8%, 100%)" stroke-width="1.5"></path><path d="M1067.52 157.24L1067.52 157.24" stroke="hsl(238.39999999999998, 63.8%, 100%)" stroke-width="1.5"></path><path d="M1067.52 157.24L1056.37 79.29" stroke="hsl(238.39999999999998, 63.8%, 100%)" stroke-width="1.5"></path><path d="M1067.52 157.24L959.97 173.96" stroke="hsl(238.39999999999998, 63.8%, 100%)" stroke-width="1.5"></path><path d="M1067.52 157.24L1092.69 283.16" stroke="hsl(238.39999999999998, 63.8%, 100%)" stroke-width="1.5"></path><path d="M1067.52 157.24L939.61 66.73" stroke="hsl(238.39999999999998, 63.8%, 100%)" stroke-width="1.5"></path><path d="M1067.52 157.24L947.22 336.35" stroke="hsl(238.39999999999998, 63.8%, 100%)" stroke-width="1.5"></path><path d="M1067.52 157.24L1081.89 -83.95" stroke="hsl(238.39999999999998, 63.8%, 100%)" stroke-width="1.5"></path><path d="M-49.01 690.52L-49.01 690.52" stroke="hsl(238.39999999999998, 63.8%, 100%)" stroke-width="1.5"></path><path d="M-49.01 690.52L65.47 672.57" stroke="hsl(238.39999999999998, 63.8%, 100%)" stroke-width="1.5"></path><path d="M-49.01 690.52L-45.36 838.51" stroke="hsl(238.39999999999998, 63.8%, 100%)" stroke-width="1.5"></path><path d="M-49.01 690.52L77.59 788.86" stroke="hsl(238.39999999999998, 63.8%, 100%)" stroke-width="1.5"></path><path d="M-49.01 690.52L160.01 705.65" stroke="hsl(238.39999999999998, 63.8%, 100%)" stroke-width="1.5"></path><path d="M-45.36 838.51L-45.36 838.51" stroke="hsl(238.39999999999998, 63.8%, 100%)" stroke-width="1.5"></path><path d="M-45.36 838.51L-76.74 938.58" stroke="hsl(238.39999999999998, 63.8%, 100%)" stroke-width="1.5"></path><path d="M-45.36 838.51L77.59 788.86" stroke="hsl(238.39999999999998, 63.8%, 100%)" stroke-width="1.5"></path><path d="M-45.36 838.51L79.5 957.03" stroke="hsl(238.39999999999998, 63.8%, 100%)" stroke-width="1.5"></path><path d="M-45.36 838.51L65.47 672.57" stroke="hsl(238.39999999999998, 63.8%, 100%)" stroke-width="1.5"></path><path d="M-76.74 938.58L-76.74 938.58" stroke="hsl(238.39999999999998, 63.8%, 100%)" stroke-width="1.5"></path><path d="M-76.74 938.58L79.5 957.03" stroke="hsl(238.39999999999998, 63.8%, 100%)" stroke-width="1.5"></path><path d="M65.47 672.57L65.47 672.57" stroke="hsl(238.39999999999998, 63.8%, 100%)" stroke-width="1.5"></path><path d="M65.47 672.57L160.01 705.65" stroke="hsl(238.39999999999998, 63.8%, 100%)" stroke-width="1.5"></path><path d="M65.47 672.57L77.59 788.86" stroke="hsl(238.39999999999998, 63.8%, 100%)" stroke-width="1.5"></path><path d="M77.59 788.86L77.59 788.86" stroke="hsl(238.39999999999998, 63.8%, 100%)" stroke-width="1.5"></path><path d="M77.59 788.86L160.01 705.65" stroke="hsl(238.39999999999998, 63.8%, 100%)" stroke-width="1.5"></path><path d="M77.59 788.86L196.7 827.38" stroke="hsl(238.39999999999998, 63.8%, 100%)" stroke-width="1.5"></path><path d="M79.5 957.03L79.5 957.03" stroke="hsl(238.39999999999998, 63.8%, 100%)" stroke-width="1.5"></path><path d="M79.5 957.03L164.79 967.61" stroke="hsl(238.39999999999998, 63.8%, 100%)" stroke-width="1.5"></path><path d="M79.5 957.03L77.59 788.86" stroke="hsl(238.39999999999998, 63.8%, 100%)" stroke-width="1.5"></path><path d="M160.01 705.65L160.01 705.65" stroke="hsl(238.39999999999998, 63.8%, 100%)" stroke-width="1.5"></path><path d="M160.01 705.65L196.7 827.38" stroke="hsl(238.39999999999998, 63.8%, 100%)" stroke-width="1.5"></path><path d="M164.79 967.61L164.79 967.61" stroke="hsl(238.39999999999998, 63.8%, 100%)" stroke-width="1.5"></path><path d="M164.79 967.61L196.7 827.38" stroke="hsl(238.39999999999998, 63.8%, 100%)" stroke-width="1.5"></path><path d="M323.6 682.78L323.6 682.78" stroke="hsl(238.39999999999998, 63.8%, 100%)" stroke-width="1.5"></path><path d="M323.6 682.78L318.87 821.44" stroke="hsl(238.39999999999998, 63.8%, 100%)" stroke-width="1.5"></path><path d="M323.6 682.78L462.41 660.62" stroke="hsl(238.39999999999998, 63.8%, 100%)" stroke-width="1.5"></path><path d="M323.6 682.78L449.86 788.44" stroke="hsl(238.39999999999998, 63.8%, 100%)" stroke-width="1.5"></path><path d="M323.6 682.78L160.01 705.65" stroke="hsl(238.39999999999998, 63.8%, 100%)" stroke-width="1.5"></path><path d="M323.6 682.78L426.12 552.99" stroke="hsl(238.39999999999998, 63.8%, 100%)" stroke-width="1.5"></path><path d="M318.87 821.44L318.87 821.44" stroke="hsl(238.39999999999998, 63.8%, 100%)" stroke-width="1.5"></path><path d="M318.87 821.44L319.68 951.3" stroke="hsl(238.39999999999998, 63.8%, 100%)" stroke-width="1.5"></path><path d="M318.87 821.44L449.86 788.44" stroke="hsl(238.39999999999998, 63.8%, 100%)" stroke-width="1.5"></path><path d="M318.87 821.44L413.45 966.61" stroke="hsl(238.39999999999998, 63.8%, 100%)" stroke-width="1.5"></path><path d="M318.87 821.44L160.01 705.65" stroke="hsl(238.39999999999998, 63.8%, 100%)" stroke-width="1.5"></path><path d="M319.68 951.3L319.68 951.3" stroke="hsl(238.39999999999998, 63.8%, 100%)" stroke-width="1.5"></path><path d="M319.68 951.3L413.45 966.61" stroke="hsl(238.39999999999998, 63.8%, 100%)" stroke-width="1.5"></path><path d="M319.68 951.3L164.79 967.61" stroke="hsl(238.39999999999998, 63.8%, 100%)" stroke-width="1.5"></path><path d="M319.68 951.3L196.7 827.38" stroke="hsl(238.39999999999998, 63.8%, 100%)" stroke-width="1.5"></path><path d="M426.12 552.99L426.12 552.99" stroke="hsl(238.39999999999998, 63.8%, 100%)" stroke-width="1.5"></path><path d="M426.12 552.99L462.41 660.62" stroke="hsl(238.39999999999998, 63.8%, 100%)" stroke-width="1.5"></path><path d="M462.41 660.62L462.41 660.62" stroke="hsl(238.39999999999998, 63.8%, 100%)" stroke-width="1.5"></path><path d="M462.41 660.62L550.82 707.65" stroke="hsl(238.39999999999998, 63.8%, 100%)" stroke-width="1.5"></path><path d="M449.86 788.44L449.86 788.44" stroke="hsl(238.39999999999998, 63.8%, 100%)" stroke-width="1.5"></path><path d="M449.86 788.44L462.41 660.62" stroke="hsl(238.39999999999998, 63.8%, 100%)" stroke-width="1.5"></path><path d="M449.86 788.44L550.82 707.65" stroke="hsl(238.39999999999998, 63.8%, 100%)" stroke-width="1.5"></path><path d="M413.45 966.61L413.45 966.61" stroke="hsl(238.39999999999998, 63.8%, 100%)" stroke-width="1.5"></path><path d="M413.45 966.61L536.92 959.31" stroke="hsl(238.39999999999998, 63.8%, 100%)" stroke-width="1.5"></path><path d="M550.82 707.65L550.82 707.65" stroke="hsl(238.39999999999998, 63.8%, 100%)" stroke-width="1.5"></path><path d="M536.92 959.31L536.92 959.31" stroke="hsl(238.39999999999998, 63.8%, 100%)" stroke-width="1.5"></path><path d="M536.92 959.31L666.05 817.71" stroke="hsl(238.39999999999998, 63.8%, 100%)" stroke-width="1.5"></path><path d="M536.92 959.31L449.86 788.44" stroke="hsl(238.39999999999998, 63.8%, 100%)" stroke-width="1.5"></path><path d="M536.92 959.31L319.68 951.3" stroke="hsl(238.39999999999998, 63.8%, 100%)" stroke-width="1.5"></path><path d="M536.92 959.31L550.82 707.65" stroke="hsl(238.39999999999998, 63.8%, 100%)" stroke-width="1.5"></path><path d="M676.81 444.94L676.81 444.94" stroke="hsl(238.39999999999998, 63.8%, 100%)" stroke-width="1.5"></path><path d="M693.64 573.81L693.64 573.81" stroke="hsl(238.39999999999998, 63.8%, 100%)" stroke-width="1.5"></path><path d="M693.64 573.81L812.1 556.99" stroke="hsl(238.39999999999998, 63.8%, 100%)" stroke-width="1.5"></path><path d="M693.64 573.81L676.81 444.94" stroke="hsl(238.39999999999998, 63.8%, 100%)" stroke-width="1.5"></path><path d="M693.64 573.81L799.37 424.98" stroke="hsl(238.39999999999998, 63.8%, 100%)" stroke-width="1.5"></path><path d="M666.05 817.71L666.05 817.71" stroke="hsl(238.39999999999998, 63.8%, 100%)" stroke-width="1.5"></path><path d="M666.05 817.71L550.82 707.65" stroke="hsl(238.39999999999998, 63.8%, 100%)" stroke-width="1.5"></path><path d="M798.58 68.31L798.58 68.31" stroke="hsl(238.39999999999998, 63.8%, 100%)" stroke-width="1.5"></path><path d="M798.58 68.31L811.25 187.98" stroke="hsl(238.39999999999998, 63.8%, 100%)" stroke-width="1.5"></path><path d="M798.58 68.31L939.61 66.73" stroke="hsl(238.39999999999998, 63.8%, 100%)" stroke-width="1.5"></path><path d="M798.58 68.31L959.97 173.96" stroke="hsl(238.39999999999998, 63.8%, 100%)" stroke-width="1.5"></path><path d="M798.58 68.31L960.57 -81.94" stroke="hsl(238.39999999999998, 63.8%, 100%)" stroke-width="1.5"></path><path d="M798.58 68.31L798.28 293.83" stroke="hsl(238.39999999999998, 63.8%, 100%)" stroke-width="1.5"></path><path d="M811.25 187.98L811.25 187.98" stroke="hsl(238.39999999999998, 63.8%, 100%)" stroke-width="1.5"></path><path d="M811.25 187.98L959.97 173.96" stroke="hsl(238.39999999999998, 63.8%, 100%)" stroke-width="1.5"></path><path d="M799.37 424.98L799.37 424.98" stroke="hsl(238.39999999999998, 63.8%, 100%)" stroke-width="1.5"></path><path d="M799.37 424.98L676.81 444.94" stroke="hsl(238.39999999999998, 63.8%, 100%)" stroke-width="1.5"></path><path d="M812.1 556.99L812.1 556.99" stroke="hsl(238.39999999999998, 63.8%, 100%)" stroke-width="1.5"></path><path d="M812.1 556.99L906.97 565.72" stroke="hsl(238.39999999999998, 63.8%, 100%)" stroke-width="1.5"></path><path d="M939.61 66.73L939.61 66.73" stroke="hsl(238.39999999999998, 63.8%, 100%)" stroke-width="1.5"></path><path d="M939.61 66.73L959.97 173.96" stroke="hsl(238.39999999999998, 63.8%, 100%)" stroke-width="1.5"></path><path d="M939.61 66.73L1056.37 79.29" stroke="hsl(238.39999999999998, 63.8%, 100%)" stroke-width="1.5"></path><path d="M959.97 173.96L959.97 173.96" stroke="hsl(238.39999999999998, 63.8%, 100%)" stroke-width="1.5"></path><path d="M959.97 173.96L1056.37 79.29" stroke="hsl(238.39999999999998, 63.8%, 100%)" stroke-width="1.5"></path><path d="M959.97 173.96L947.22 336.35" stroke="hsl(238.39999999999998, 63.8%, 100%)" stroke-width="1.5"></path><path d="M947.22 336.35L947.22 336.35" stroke="hsl(238.39999999999998, 63.8%, 100%)" stroke-width="1.5"></path><path d="M947.22 336.35L958.75 447.5" stroke="hsl(238.39999999999998, 63.8%, 100%)" stroke-width="1.5"></path><path d="M947.22 336.35L1092.69 283.16" stroke="hsl(238.39999999999998, 63.8%, 100%)" stroke-width="1.5"></path><path d="M947.22 336.35L798.28 293.83" stroke="hsl(238.39999999999998, 63.8%, 100%)" stroke-width="1.5"></path><path d="M958.75 447.5L958.75 447.5" stroke="hsl(238.39999999999998, 63.8%, 100%)" stroke-width="1.5"></path><path d="M958.75 447.5L1082.53 416.34" stroke="hsl(238.39999999999998, 63.8%, 100%)" stroke-width="1.5"></path><path d="M906.97 565.72L906.97 565.72" stroke="hsl(238.39999999999998, 63.8%, 100%)" stroke-width="1.5"></path><path d="M948.09 662L948.09 662" stroke="hsl(238.39999999999998, 63.8%, 100%)" stroke-width="1.5"></path><path d="M948.09 662L906.97 565.72" stroke="hsl(238.39999999999998, 63.8%, 100%)" stroke-width="1.5"></path><path d="M948.09 662L1067.22 575.42" stroke="hsl(238.39999999999998, 63.8%, 100%)" stroke-width="1.5"></path><path d="M948.09 662L783.04 668.44" stroke="hsl(238.39999999999998, 63.8%, 100%)" stroke-width="1.5"></path><path d="M948.09 662L1053.43 790.52" stroke="hsl(238.39999999999998, 63.8%, 100%)" stroke-width="1.5"></path><path d="M1081.89 -83.95L1081.89 -83.95" stroke="hsl(238.39999999999998, 63.8%, 100%)" stroke-width="1.5"></path><path d="M1081.89 -83.95L1056.37 79.29" stroke="hsl(238.39999999999998, 63.8%, 100%)" stroke-width="1.5"></path><path d="M1081.89 -83.95L939.61 66.73" stroke="hsl(238.39999999999998, 63.8%, 100%)" stroke-width="1.5"></path><path d="M1056.37 79.29L1056.37 79.29" stroke="hsl(238.39999999999998, 63.8%, 100%)" stroke-width="1.5"></path><path d="M1056.37 79.29L960.57 -81.94" stroke="hsl(238.39999999999998, 63.8%, 100%)" stroke-width="1.5"></path><path d="M1092.69 283.16L1092.69 283.16" stroke="hsl(238.39999999999998, 63.8%, 100%)" stroke-width="1.5"></path><path d="M1092.69 283.16L1082.53 416.34" stroke="hsl(238.39999999999998, 63.8%, 100%)" stroke-width="1.5"></path><path d="M1082.53 416.34L1082.53 416.34" stroke="hsl(238.39999999999998, 63.8%, 100%)" stroke-width="1.5"></path><path d="M1067.22 575.42L1067.22 575.42" stroke="hsl(238.39999999999998, 63.8%, 100%)" stroke-width="1.5"></path><path d="M1067.22 575.42L1082.53 416.34" stroke="hsl(238.39999999999998, 63.8%, 100%)" stroke-width="1.5"></path><path d="M1053.43 790.52L1053.43 790.52" stroke="hsl(238.39999999999998, 63.8%, 100%)" stroke-width="1.5"></path><path d="M1053.43 790.52L1040.03 924.7" stroke="hsl(238.39999999999998, 63.8%, 100%)" stroke-width="1.5"></path><path d="M1053.43 790.52L1067.22 575.42" stroke="hsl(238.39999999999998, 63.8%, 100%)" stroke-width="1.5"></path><path d="M1053.43 790.52L906.97 565.72" stroke="hsl(238.39999999999998, 63.8%, 100%)" stroke-width="1.5"></path><path d="M1053.43 790.52L783.04 668.44" stroke="hsl(238.39999999999998, 63.8%, 100%)" stroke-width="1.5"></path><path d="M1040.03 924.7L1040.03 924.7" stroke="hsl(238.39999999999998, 63.8%, 100%)" stroke-width="1.5"></path><path d="M1040.03 924.7L809.41 796.55" stroke="hsl(238.39999999999998, 63.8%, 100%)" stroke-width="1.5"></path><path d="M1040.03 924.7L948.09 662" stroke="hsl(238.39999999999998, 63.8%, 100%)" stroke-width="1.5"></path><path d="M1040.03 924.7L1067.22 575.42" stroke="hsl(238.39999999999998, 63.8%, 100%)" stroke-width="1.5"></path><path d="M1040.03 924.7L783.04 668.44" stroke="hsl(238.39999999999998, 63.8%, 100%)" stroke-width="1.5"></path><circle r="25" cx="196.7" cy="827.38" fill="url(&quot;#SvgjsRadialGradient1836&quot;)"></circle><circle r="25" cx="565.35" cy="459.28" fill="url(&quot;#SvgjsRadialGradient1836&quot;)"></circle><circle r="25" cx="571.74" cy="797.63" fill="url(&quot;#SvgjsRadialGradient1836&quot;)"></circle><circle r="25" cx="798.28" cy="293.83" fill="url(&quot;#SvgjsRadialGradient1836&quot;)"></circle><circle r="25" cx="783.04" cy="668.44" fill="url(&quot;#SvgjsRadialGradient1836&quot;)"></circle><circle r="25" cx="809.41" cy="796.55" fill="url(&quot;#SvgjsRadialGradient1836&quot;)"></circle><circle r="25" cx="960.57" cy="-81.94" fill="url(&quot;#SvgjsRadialGradient1836&quot;)"></circle><circle r="25" cx="1067.52" cy="157.24" fill="url(&quot;#SvgjsRadialGradient1836&quot;)"></circle><circle r="5" cx="-49.01" cy="690.52" fill="#d0d1f5"></circle><circle r="5" cx="-45.36" cy="838.51" fill="#d0d1f5"></circle><circle r="5" cx="-76.74" cy="938.58" fill="#d0d1f5"></circle><circle r="5" cx="65.47" cy="672.57" fill="#d0d1f5"></circle><circle r="5" cx="77.59" cy="788.86" fill="#d0d1f5"></circle><circle r="5" cx="79.5" cy="957.03" fill="#d0d1f5"></circle><circle r="5" cx="160.01" cy="705.65" fill="#d0d1f5"></circle><circle r="5" cx="164.79" cy="967.61" fill="#d0d1f5"></circle><circle r="5" cx="323.6" cy="682.78" fill="#d0d1f5"></circle><circle r="5" cx="318.87" cy="821.44" fill="#d0d1f5"></circle><circle r="5" cx="319.68" cy="951.3" fill="#d0d1f5"></circle><circle r="5" cx="426.12" cy="552.99" fill="#d0d1f5"></circle><circle r="5" cx="462.41" cy="660.62" fill="#d0d1f5"></circle><circle r="5" cx="449.86" cy="788.44" fill="#d0d1f5"></circle><circle r="5" cx="413.45" cy="966.61" fill="#d0d1f5"></circle><circle r="5" cx="550.82" cy="707.65" fill="#d0d1f5"></circle><circle r="5" cx="536.92" cy="959.31" fill="#d0d1f5"></circle><circle r="5" cx="676.81" cy="444.94" fill="#d0d1f5"></circle><circle r="5" cx="693.64" cy="573.81" fill="#d0d1f5"></circle><circle r="5" cx="666.05" cy="817.71" fill="#d0d1f5"></circle><circle r="5" cx="798.58" cy="68.31" fill="#d0d1f5"></circle><circle r="5" cx="811.25" cy="187.98" fill="#d0d1f5"></circle><circle r="5" cx="799.37" cy="424.98" fill="#d0d1f5"></circle><circle r="5" cx="812.1" cy="556.99" fill="#d0d1f5"></circle><circle r="5" cx="939.61" cy="66.73" fill="#d0d1f5"></circle><circle r="5" cx="959.97" cy="173.96" fill="#d0d1f5"></circle><circle r="5" cx="947.22" cy="336.35" fill="#d0d1f5"></circle><circle r="5" cx="958.75" cy="447.5" fill="#d0d1f5"></circle><circle r="5" cx="906.97" cy="565.72" fill="#d0d1f5"></circle><circle r="5" cx="948.09" cy="662" fill="#d0d1f5"></circle><circle r="5" cx="1081.89" cy="-83.95" fill="#d0d1f5"></circle><circle r="5" cx="1056.37" cy="79.29" fill="#d0d1f5"></circle><circle r="5" cx="1092.69" cy="283.16" fill="#d0d1f5"></circle><circle r="5" cx="1082.53" cy="416.34" fill="#d0d1f5"></circle><circle r="5" cx="1067.22" cy="575.42" fill="#d0d1f5"></circle><circle r="5" cx="1053.43" cy="790.52" fill="#d0d1f5"></circle><circle r="5" cx="1040.03" cy="924.7" fill="#d0d1f5"></circle></g><defs><mask id="SvgjsMask1834"><rect width="1000" height="800" fill="#ffffff"></rect></mask><linearGradient x1="95%" y1="106.25%" x2="5%" y2="-6.25%" gradientUnits="userSpaceOnUse" id="SvgjsLinearGradient1835"><stop stop-color="rgba(99, 102, 241, 1)" offset="0.01"></stop><stop stop-color="rgba(156, 194, 242, 1)" offset="1"></stop></linearGradient><radialGradient id="SvgjsRadialGradient1836"><stop stop-color="#ffffff" offset="0.1"></stop><stop stop-color="rgba(160, 162, 234, 1)" offset="0.2"></stop><stop stop-color="rgba(160, 162, 234, 0)" offset="1"></stop></radialGradient></defs></svg>